General
Complete name                    : D:Discovery Channel Short film - Cliff Diver.mp4
Format                           : MPEG-4
Format profile                   : Base Media / Version 2
Codec ID                         : mp42
File size                        : 11.8 MiB
Duration                         : 4mn 6s
Overall bit rate mode            : Variable
Overall bit rate                 : 400 Kbps
Encoded date                     : UTC 2008-09-01 21:06:30
Tagged date                      : UTC 2008-09-01 21:06:30
gsst                             : 0
gstd                             : 247476
gssd                             : B4A7DD0A2MH1300698307399619
gshh                             :

Video
ID                               : 2
Format                           : AVC
Format/Info                      : Advanced Video Codec
Format profile                   : Baseline@L1.1
Format settings, CABAC           : No
Format settings, ReFrames        : 1 frame
Codec ID                         : avc1
Codec ID/Info                    : Advanced Video Coding
Duration                         : 4mn 6s
Bit rate                         : 269 Kbps
Maximum bit rate                 : 1 130 Kbps
Width                            : 352 pixels
Height                           : 264 pixels
Display aspect ratio             : 4:3
Frame rate mode                  : Constant
Frame rate                       : 25.000 fps
Color space                      : YUV
Chroma subsampling               : 4:2:0
Bit depth                        : 8 bits
Scan type                        : Progressive
Bits/(Pixel*Frame)               : 0.116
Stream size                      : 7.91 MiB (67%)
Title                            : (C) 2007 Google Inc. v06.24.2007.
Encoded date                     : UTC 2008-09-01 21:06:30
Tagged date                      : UTC 2008-09-01 21:06:30

Audio
ID                               : 1
Format                           : AAC
Format/Info                      : Advanced Audio Codec
Format profile                   : LC
Codec ID                         : 40
Duration                         : 4mn 6s
Bit rate mode                    : Variable
Bit rate                         : 126 Kbps
Maximum bit rate                 : 156 Kbps
Channel(s)                       : 2 channels
Channel positions                : Front: L R
Sampling rate                    : 44.1 KHz
Compression mode                 : Lossy
Stream size                      : 3.71 MiB (32%)
Title                            : (C) 2007 Google Inc. v06.24.2007.
Encoded date                     : UTC 2008-09-01 21:06:30
Tagged date                      : UTC 2008-09-01 21:06:30
